<?xml version="1.0" encoding="utf-8" standalone="no"?>
<!DOCTYPE svg PUBLIC "-//W3C//DTD SVG 1.1//EN"
  "http://www.w3.org/Graphics/SVG/1.1/DTD/svg11.dtd">
<!-- Created with matplotlib (http://matplotlib.org/) -->
<svg height="288pt" version="1.1" viewBox="0 0 432 288" width="432pt" xmlns="http://www.w3.org/2000/svg" xmlns:xlink="http://www.w3.org/1999/xlink">
 <defs>
  <style type="text/css">
*{stroke-linecap:butt;stroke-linejoin:round;}
  </style>
 </defs>
 <g id="figure_1">
  <g id="patch_1">
   <path d="M 0 288 
L 432 288 
L 432 0 
L 0 0 
z
" style="fill:#ffffff;"/>
  </g>
  <g id="axes_1">
   <g id="patch_2">
    <path d="M 43.2 244.8 
L 388.8 244.8 
L 388.8 28.8 
L 43.2 28.8 
z
" style="fill:#eaeaf2;"/>
   </g>
   <g id="matplotlib.axis_1">
    <g id="xtick_1">
     <g id="line2d_1">
      <path clip-path="url(#p94e5aedae9)" d="M 52.8 244.8 
L 52.8 28.8 
" style="fill:none;stroke:#ffffff;stroke-linecap:round;"/>
     </g>
     <g id="line2d_2"/>
     <g id="text_1">
      <!-- 1999 -->
      <defs>
       <path d="M 37.25 0 
L 28.46875 0 
L 28.46875 56 
Q 25.296875 52.984375 20.140625 49.953125 
Q 14.984375 46.921875 10.890625 45.40625 
L 10.890625 53.90625 
Q 18.265625 57.375 23.78125 62.296875 
Q 29.296875 67.234375 31.59375 71.875 
L 37.25 71.875 
z
" id="ArialMT-31"/>
       <path d="M 5.46875 16.546875 
L 13.921875 17.328125 
Q 14.984375 11.375 18.015625 8.6875 
Q 21.046875 6 25.78125 6 
Q 29.828125 6 32.875 7.859375 
Q 35.9375 9.71875 37.890625 12.8125 
Q 39.84375 15.921875 41.15625 21.1875 
Q 42.484375 26.46875 42.484375 31.9375 
Q 42.484375 32.515625 42.4375 33.6875 
Q 39.796875 29.5 35.234375 26.875 
Q 30.671875 24.265625 25.34375 24.265625 
Q 16.453125 24.265625 10.296875 30.703125 
Q 4.15625 37.15625 4.15625 47.703125 
Q 4.15625 58.59375 10.578125 65.234375 
Q 17 71.875 26.65625 71.875 
Q 33.640625 71.875 39.421875 68.109375 
Q 45.21875 64.359375 48.21875 57.390625 
Q 51.21875 50.4375 51.21875 37.25 
Q 51.21875 23.53125 48.234375 15.40625 
Q 45.265625 7.28125 39.375 3.03125 
Q 33.5 -1.21875 25.59375 -1.21875 
Q 17.1875 -1.21875 11.859375 3.4375 
Q 6.546875 8.109375 5.46875 16.546875 
z
M 41.453125 48.140625 
Q 41.453125 55.71875 37.421875 60.15625 
Q 33.40625 64.59375 27.734375 64.59375 
Q 21.875 64.59375 17.53125 59.8125 
Q 13.1875 55.03125 13.1875 47.40625 
Q 13.1875 40.578125 17.3125 36.296875 
Q 21.4375 32.03125 27.484375 32.03125 
Q 33.59375 32.03125 37.515625 36.296875 
Q 41.453125 40.578125 41.453125 48.140625 
z
" id="ArialMT-39"/>
      </defs>
      <g style="fill:#262626;" transform="translate(55.385156 274.04375)rotate(-90)scale(0.1 -0.1)">
       <use xlink:href="#ArialMT-31"/>
       <use x="55.615234" xlink:href="#ArialMT-39"/>
       <use x="111.230469" xlink:href="#ArialMT-39"/>
       <use x="166.845703" xlink:href="#ArialMT-39"/>
      </g>
     </g>
    </g>
    <g id="xtick_2">
     <g id="line2d_3">
      <path clip-path="url(#p94e5aedae9)" d="M 72 244.8 
L 72 28.8 
" style="fill:none;stroke:#ffffff;stroke-linecap:round;"/>
     </g>
     <g id="line2d_4"/>
     <g id="text_2">
      <!-- 2000 -->
      <defs>
       <path d="M 50.34375 8.453125 
L 50.34375 0 
L 3.03125 0 
Q 2.9375 3.171875 4.046875 6.109375 
Q 5.859375 10.9375 9.828125 15.625 
Q 13.8125 20.3125 21.34375 26.46875 
Q 33.015625 36.03125 37.109375 41.625 
Q 41.21875 47.21875 41.21875 52.203125 
Q 41.21875 57.421875 37.46875 61 
Q 33.734375 64.59375 27.734375 64.59375 
Q 21.390625 64.59375 17.578125 60.78125 
Q 13.765625 56.984375 13.71875 50.25 
L 4.6875 51.171875 
Q 5.609375 61.28125 11.65625 66.578125 
Q 17.71875 71.875 27.9375 71.875 
Q 38.234375 71.875 44.234375 66.15625 
Q 50.25 60.453125 50.25 52 
Q 50.25 47.703125 48.484375 43.546875 
Q 46.734375 39.40625 42.65625 34.8125 
Q 38.578125 30.21875 29.109375 22.21875 
Q 21.1875 15.578125 18.9375 13.203125 
Q 16.703125 10.84375 15.234375 8.453125 
z
" id="ArialMT-32"/>
       <path d="M 4.15625 35.296875 
Q 4.15625 48 6.765625 55.734375 
Q 9.375 63.484375 14.515625 67.671875 
Q 19.671875 71.875 27.484375 71.875 
Q 33.25 71.875 37.59375 69.546875 
Q 41.9375 67.234375 44.765625 62.859375 
Q 47.609375 58.5 49.21875 52.21875 
Q 50.828125 45.953125 50.828125 35.296875 
Q 50.828125 22.703125 48.234375 14.96875 
Q 45.65625 7.234375 40.5 3 
Q 35.359375 -1.21875 27.484375 -1.21875 
Q 17.140625 -1.21875 11.234375 6.203125 
Q 4.15625 15.140625 4.15625 35.296875 
z
M 13.1875 35.296875 
Q 13.1875 17.671875 17.3125 11.828125 
Q 21.4375 6 27.484375 6 
Q 33.546875 6 37.671875 11.859375 
Q 41.796875 17.71875 41.796875 35.296875 
Q 41.796875 52.984375 37.671875 58.78125 
Q 33.546875 64.59375 27.390625 64.59375 
Q 21.34375 64.59375 17.71875 59.46875 
Q 13.1875 52.9375 13.1875 35.296875 
z
" id="ArialMT-30"/>
      </defs>
      <g style="fill:#262626;" transform="translate(74.585156 274.04375)rotate(-90)scale(0.1 -0.1)">
       <use xlink:href="#ArialMT-32"/>
       <use x="55.615234" xlink:href="#ArialMT-30"/>
       <use x="111.230469" xlink:href="#ArialMT-30"/>
       <use x="166.845703" xlink:href="#ArialMT-30"/>
      </g>
     </g>
    </g>
    <g id="xtick_3">
     <g id="line2d_5">
      <path clip-path="url(#p94e5aedae9)" d="M 91.2 244.8 
L 91.2 28.8 
" style="fill:none;stroke:#ffffff;stroke-linecap:round;"/>
     </g>
     <g id="line2d_6"/>
     <g id="text_3">
      <!-- 2001 -->
      <g style="fill:#262626;" transform="translate(93.785156 274.04375)rotate(-90)scale(0.1 -0.1)">
       <use xlink:href="#ArialMT-32"/>
       <use x="55.615234" xlink:href="#ArialMT-30"/>
       <use x="111.230469" xlink:href="#ArialMT-30"/>
       <use x="166.845703" xlink:href="#ArialMT-31"/>
      </g>
     </g>
    </g>
    <g id="xtick_4">
     <g id="line2d_7">
      <path clip-path="url(#p94e5aedae9)" d="M 110.4 244.8 
L 110.4 28.8 
" style="fill:none;stroke:#ffffff;stroke-linecap:round;"/>
     </g>
     <g id="line2d_8"/>
     <g id="text_4">
      <!-- 2002 -->
      <g style="fill:#262626;" transform="translate(112.985156 274.04375)rotate(-90)scale(0.1 -0.1)">
       <use xlink:href="#ArialMT-32"/>
       <use x="55.615234" xlink:href="#ArialMT-30"/>
       <use x="111.230469" xlink:href="#ArialMT-30"/>
       <use x="166.845703" xlink:href="#ArialMT-32"/>
      </g>
     </g>
    </g>
    <g id="xtick_5">
     <g id="line2d_9">
      <path clip-path="url(#p94e5aedae9)" d="M 129.6 244.8 
L 129.6 28.8 
" style="fill:none;stroke:#ffffff;stroke-linecap:round;"/>
     </g>
     <g id="line2d_10"/>
     <g id="text_5">
      <!-- 2003 -->
      <defs>
       <path d="M 4.203125 18.890625 
L 12.984375 20.0625 
Q 14.5 12.59375 18.140625 9.296875 
Q 21.78125 6 27 6 
Q 33.203125 6 37.46875 10.296875 
Q 41.75 14.59375 41.75 20.953125 
Q 41.75 27 37.796875 30.921875 
Q 33.84375 34.859375 27.734375 34.859375 
Q 25.25 34.859375 21.53125 33.890625 
L 22.515625 41.609375 
Q 23.390625 41.5 23.921875 41.5 
Q 29.546875 41.5 34.03125 44.421875 
Q 38.53125 47.359375 38.53125 53.46875 
Q 38.53125 58.296875 35.25 61.46875 
Q 31.984375 64.65625 26.8125 64.65625 
Q 21.6875 64.65625 18.265625 61.421875 
Q 14.84375 58.203125 13.875 51.765625 
L 5.078125 53.328125 
Q 6.6875 62.15625 12.390625 67.015625 
Q 18.109375 71.875 26.609375 71.875 
Q 32.46875 71.875 37.390625 69.359375 
Q 42.328125 66.84375 44.9375 62.5 
Q 47.5625 58.15625 47.5625 53.265625 
Q 47.5625 48.640625 45.0625 44.828125 
Q 42.578125 41.015625 37.703125 38.765625 
Q 44.046875 37.3125 47.5625 32.6875 
Q 51.078125 28.078125 51.078125 21.140625 
Q 51.078125 11.765625 44.234375 5.25 
Q 37.40625 -1.265625 26.953125 -1.265625 
Q 17.53125 -1.265625 11.296875 4.34375 
Q 5.078125 9.96875 4.203125 18.890625 
z
" id="ArialMT-33"/>
      </defs>
      <g style="fill:#262626;" transform="translate(132.185156 274.04375)rotate(-90)scale(0.1 -0.1)">
       <use xlink:href="#ArialMT-32"/>
       <use x="55.615234" xlink:href="#ArialMT-30"/>
       <use x="111.230469" xlink:href="#ArialMT-30"/>
       <use x="166.845703" xlink:href="#ArialMT-33"/>
      </g>
     </g>
    </g>
    <g id="xtick_6">
     <g id="line2d_11">
      <path clip-path="url(#p94e5aedae9)" d="M 148.8 244.8 
L 148.8 28.8 
" style="fill:none;stroke:#ffffff;stroke-linecap:round;"/>
     </g>
     <g id="line2d_12"/>
     <g id="text_6">
      <!-- 2004 -->
      <defs>
       <path d="M 32.328125 0 
L 32.328125 17.140625 
L 1.265625 17.140625 
L 1.265625 25.203125 
L 33.9375 71.578125 
L 41.109375 71.578125 
L 41.109375 25.203125 
L 50.78125 25.203125 
L 50.78125 17.140625 
L 41.109375 17.140625 
L 41.109375 0 
z
M 32.328125 25.203125 
L 32.328125 57.46875 
L 9.90625 25.203125 
z
" id="ArialMT-34"/>
      </defs>
      <g style="fill:#262626;" transform="translate(151.385156 274.04375)rotate(-90)scale(0.1 -0.1)">
       <use xlink:href="#ArialMT-32"/>
       <use x="55.615234" xlink:href="#ArialMT-30"/>
       <use x="111.230469" xlink:href="#ArialMT-30"/>
       <use x="166.845703" xlink:href="#ArialMT-34"/>
      </g>
     </g>
    </g>
    <g id="xtick_7">
     <g id="line2d_13">
      <path clip-path="url(#p94e5aedae9)" d="M 168 244.8 
L 168 28.8 
" style="fill:none;stroke:#ffffff;stroke-linecap:round;"/>
     </g>
     <g id="line2d_14"/>
     <g id="text_7">
      <!-- 2005 -->
      <defs>
       <path d="M 4.15625 18.75 
L 13.375 19.53125 
Q 14.40625 12.796875 18.140625 9.390625 
Q 21.875 6 27.15625 6 
Q 33.5 6 37.890625 10.78125 
Q 42.28125 15.578125 42.28125 23.484375 
Q 42.28125 31 38.0625 35.34375 
Q 33.84375 39.703125 27 39.703125 
Q 22.75 39.703125 19.328125 37.765625 
Q 15.921875 35.84375 13.96875 32.765625 
L 5.71875 33.84375 
L 12.640625 70.609375 
L 48.25 70.609375 
L 48.25 62.203125 
L 19.671875 62.203125 
L 15.828125 42.96875 
Q 22.265625 47.46875 29.34375 47.46875 
Q 38.71875 47.46875 45.15625 40.96875 
Q 51.609375 34.46875 51.609375 24.265625 
Q 51.609375 14.546875 45.953125 7.46875 
Q 39.0625 -1.21875 27.15625 -1.21875 
Q 17.390625 -1.21875 11.203125 4.25 
Q 5.03125 9.71875 4.15625 18.75 
z
" id="ArialMT-35"/>
      </defs>
      <g style="fill:#262626;" transform="translate(170.585156 274.04375)rotate(-90)scale(0.1 -0.1)">
       <use xlink:href="#ArialMT-32"/>
       <use x="55.615234" xlink:href="#ArialMT-30"/>
       <use x="111.230469" xlink:href="#ArialMT-30"/>
       <use x="166.845703" xlink:href="#ArialMT-35"/>
      </g>
     </g>
    </g>
    <g id="xtick_8">
     <g id="line2d_15">
      <path clip-path="url(#p94e5aedae9)" d="M 187.2 244.8 
L 187.2 28.8 
" style="fill:none;stroke:#ffffff;stroke-linecap:round;"/>
     </g>
     <g id="line2d_16"/>
     <g id="text_8">
      <!-- 2006 -->
      <defs>
       <path d="M 49.75 54.046875 
L 41.015625 53.375 
Q 39.84375 58.546875 37.703125 60.890625 
Q 34.125 64.65625 28.90625 64.65625 
Q 24.703125 64.65625 21.53125 62.3125 
Q 17.390625 59.28125 14.984375 53.46875 
Q 12.59375 47.65625 12.5 36.921875 
Q 15.671875 41.75 20.265625 44.09375 
Q 24.859375 46.4375 29.890625 46.4375 
Q 38.671875 46.4375 44.84375 39.96875 
Q 51.03125 33.5 51.03125 23.25 
Q 51.03125 16.5 48.125 10.71875 
Q 45.21875 4.9375 40.140625 1.859375 
Q 35.0625 -1.21875 28.609375 -1.21875 
Q 17.625 -1.21875 10.6875 6.859375 
Q 3.765625 14.9375 3.765625 33.5 
Q 3.765625 54.25 11.421875 63.671875 
Q 18.109375 71.875 29.4375 71.875 
Q 37.890625 71.875 43.28125 67.140625 
Q 48.6875 62.40625 49.75 54.046875 
z
M 13.875 23.1875 
Q 13.875 18.65625 15.796875 14.5 
Q 17.71875 10.359375 21.1875 8.171875 
Q 24.65625 6 28.46875 6 
Q 34.03125 6 38.03125 10.484375 
Q 42.046875 14.984375 42.046875 22.703125 
Q 42.046875 30.125 38.078125 34.390625 
Q 34.125 38.671875 28.125 38.671875 
Q 22.171875 38.671875 18.015625 34.390625 
Q 13.875 30.125 13.875 23.1875 
z
" id="ArialMT-36"/>
      </defs>
      <g style="fill:#262626;" transform="translate(189.785156 274.04375)rotate(-90)scale(0.1 -0.1)">
       <use xlink:href="#ArialMT-32"/>
       <use x="55.615234" xlink:href="#ArialMT-30"/>
       <use x="111.230469" xlink:href="#ArialMT-30"/>
       <use x="166.845703" xlink:href="#ArialMT-36"/>
      </g>
     </g>
    </g>
    <g id="xtick_9">
     <g id="line2d_17">
      <path clip-path="url(#p94e5aedae9)" d="M 206.4 244.8 
L 206.4 28.8 
" style="fill:none;stroke:#ffffff;stroke-linecap:round;"/>
     </g>
     <g id="line2d_18"/>
     <g id="text_9">
      <!-- 2007 -->
      <defs>
       <path d="M 4.734375 62.203125 
L 4.734375 70.65625 
L 51.078125 70.65625 
L 51.078125 63.8125 
Q 44.234375 56.546875 37.515625 44.484375 
Q 30.8125 32.421875 27.15625 19.671875 
Q 24.515625 10.6875 23.78125 0 
L 14.75 0 
Q 14.890625 8.453125 18.0625 20.40625 
Q 21.234375 32.375 27.171875 43.484375 
Q 33.109375 54.59375 39.796875 62.203125 
z
" id="ArialMT-37"/>
      </defs>
      <g style="fill:#262626;" transform="translate(208.985156 274.04375)rotate(-90)scale(0.1 -0.1)">
       <use xlink:href="#ArialMT-32"/>
       <use x="55.615234" xlink:href="#ArialMT-30"/>
       <use x="111.230469" xlink:href="#ArialMT-30"/>
       <use x="166.845703" xlink:href="#ArialMT-37"/>
      </g>
     </g>
    </g>
    <g id="xtick_10">
     <g id="line2d_19">
      <path clip-path="url(#p94e5aedae9)" d="M 225.6 244.8 
L 225.6 28.8 
" style="fill:none;stroke:#ffffff;stroke-linecap:round;"/>
     </g>
     <g id="line2d_20"/>
     <g id="text_10">
      <!-- 2008 -->
      <defs>
       <path d="M 17.671875 38.8125 
Q 12.203125 40.828125 9.5625 44.53125 
Q 6.9375 48.25 6.9375 53.421875 
Q 6.9375 61.234375 12.546875 66.546875 
Q 18.171875 71.875 27.484375 71.875 
Q 36.859375 71.875 42.578125 66.421875 
Q 48.296875 60.984375 48.296875 53.171875 
Q 48.296875 48.1875 45.671875 44.5 
Q 43.0625 40.828125 37.75 38.8125 
Q 44.34375 36.671875 47.78125 31.875 
Q 51.21875 27.09375 51.21875 20.453125 
Q 51.21875 11.28125 44.71875 5.03125 
Q 38.234375 -1.21875 27.640625 -1.21875 
Q 17.046875 -1.21875 10.546875 5.046875 
Q 4.046875 11.328125 4.046875 20.703125 
Q 4.046875 27.6875 7.59375 32.390625 
Q 11.140625 37.109375 17.671875 38.8125 
z
M 15.921875 53.71875 
Q 15.921875 48.640625 19.1875 45.40625 
Q 22.46875 42.1875 27.6875 42.1875 
Q 32.765625 42.1875 36.015625 45.375 
Q 39.265625 48.578125 39.265625 53.21875 
Q 39.265625 58.0625 35.90625 61.359375 
Q 32.5625 64.65625 27.59375 64.65625 
Q 22.5625 64.65625 19.234375 61.421875 
Q 15.921875 58.203125 15.921875 53.71875 
z
M 13.09375 20.65625 
Q 13.09375 16.890625 14.875 13.375 
Q 16.65625 9.859375 20.171875 7.921875 
Q 23.6875 6 27.734375 6 
Q 34.03125 6 38.125 10.046875 
Q 42.234375 14.109375 42.234375 20.359375 
Q 42.234375 26.703125 38.015625 30.859375 
Q 33.796875 35.015625 27.4375 35.015625 
Q 21.234375 35.015625 17.15625 30.90625 
Q 13.09375 26.8125 13.09375 20.65625 
z
" id="ArialMT-38"/>
      </defs>
      <g style="fill:#262626;" transform="translate(228.185156 274.04375)rotate(-90)scale(0.1 -0.1)">
       <use xlink:href="#ArialMT-32"/>
       <use x="55.615234" xlink:href="#ArialMT-30"/>
       <use x="111.230469" xlink:href="#ArialMT-30"/>
       <use x="166.845703" xlink:href="#ArialMT-38"/>
      </g>
     </g>
    </g>
    <g id="xtick_11">
     <g id="line2d_21">
      <path clip-path="url(#p94e5aedae9)" d="M 244.8 244.8 
L 244.8 28.8 
" style="fill:none;stroke:#ffffff;stroke-linecap:round;"/>
     </g>
     <g id="line2d_22"/>
     <g id="text_11">
      <!-- 2009 -->
      <g style="fill:#262626;" transform="translate(247.385156 274.04375)rotate(-90)scale(0.1 -0.1)">
       <use xlink:href="#ArialMT-32"/>
       <use x="55.615234" xlink:href="#ArialMT-30"/>
       <use x="111.230469" xlink:href="#ArialMT-30"/>
       <use x="166.845703" xlink:href="#ArialMT-39"/>
      </g>
     </g>
    </g>
    <g id="xtick_12">
     <g id="line2d_23">
      <path clip-path="url(#p94e5aedae9)" d="M 264 244.8 
L 264 28.8 
" style="fill:none;stroke:#ffffff;stroke-linecap:round;"/>
     </g>
     <g id="line2d_24"/>
     <g id="text_12">
      <!-- 2010 -->
      <g style="fill:#262626;" transform="translate(266.585156 274.04375)rotate(-90)scale(0.1 -0.1)">
       <use xlink:href="#ArialMT-32"/>
       <use x="55.615234" xlink:href="#ArialMT-30"/>
       <use x="111.230469" xlink:href="#ArialMT-31"/>
       <use x="166.845703" xlink:href="#ArialMT-30"/>
      </g>
     </g>
    </g>
    <g id="xtick_13">
     <g id="line2d_25">
      <path clip-path="url(#p94e5aedae9)" d="M 283.2 244.8 
L 283.2 28.8 
" style="fill:none;stroke:#ffffff;stroke-linecap:round;"/>
     </g>
     <g id="line2d_26"/>
     <g id="text_13">
      <!-- 2011 -->
      <g style="fill:#262626;" transform="translate(285.785156 274.032812)rotate(-90)scale(0.1 -0.1)">
       <use xlink:href="#ArialMT-32"/>
       <use x="55.615234" xlink:href="#ArialMT-30"/>
       <use x="111.230469" xlink:href="#ArialMT-31"/>
       <use x="166.736328" xlink:href="#ArialMT-31"/>
      </g>
     </g>
    </g>
    <g id="xtick_14">
     <g id="line2d_27">
      <path clip-path="url(#p94e5aedae9)" d="M 302.4 244.8 
L 302.4 28.8 
" style="fill:none;stroke:#ffffff;stroke-linecap:round;"/>
     </g>
     <g id="line2d_28"/>
     <g id="text_14">
      <!-- 2012 -->
      <g style="fill:#262626;" transform="translate(304.985156 274.04375)rotate(-90)scale(0.1 -0.1)">
       <use xlink:href="#ArialMT-32"/>
       <use x="55.615234" xlink:href="#ArialMT-30"/>
       <use x="111.230469" xlink:href="#ArialMT-31"/>
       <use x="166.845703" xlink:href="#ArialMT-32"/>
      </g>
     </g>
    </g>
    <g id="xtick_15">
     <g id="line2d_29">
      <path clip-path="url(#p94e5aedae9)" d="M 321.6 244.8 
L 321.6 28.8 
" style="fill:none;stroke:#ffffff;stroke-linecap:round;"/>
     </g>
     <g id="line2d_30"/>
     <g id="text_15">
      <!-- 2013 -->
      <g style="fill:#262626;" transform="translate(324.185156 274.04375)rotate(-90)scale(0.1 -0.1)">
       <use xlink:href="#ArialMT-32"/>
       <use x="55.615234" xlink:href="#ArialMT-30"/>
       <use x="111.230469" xlink:href="#ArialMT-31"/>
       <use x="166.845703" xlink:href="#ArialMT-33"/>
      </g>
     </g>
    </g>
    <g id="xtick_16">
     <g id="line2d_31">
      <path clip-path="url(#p94e5aedae9)" d="M 340.8 244.8 
L 340.8 28.8 
" style="fill:none;stroke:#ffffff;stroke-linecap:round;"/>
     </g>
     <g id="line2d_32"/>
     <g id="text_16">
      <!-- 2014 -->
      <g style="fill:#262626;" transform="translate(343.385156 274.04375)rotate(-90)scale(0.1 -0.1)">
       <use xlink:href="#ArialMT-32"/>
       <use x="55.615234" xlink:href="#ArialMT-30"/>
       <use x="111.230469" xlink:href="#ArialMT-31"/>
       <use x="166.845703" xlink:href="#ArialMT-34"/>
      </g>
     </g>
    </g>
    <g id="xtick_17">
     <g id="line2d_33">
      <path clip-path="url(#p94e5aedae9)" d="M 360 244.8 
L 360 28.8 
" style="fill:none;stroke:#ffffff;stroke-linecap:round;"/>
     </g>
     <g id="line2d_34"/>
     <g id="text_17">
      <!-- 2015 -->
      <g style="fill:#262626;" transform="translate(362.585156 274.04375)rotate(-90)scale(0.1 -0.1)">
       <use xlink:href="#ArialMT-32"/>
       <use x="55.615234" xlink:href="#ArialMT-30"/>
       <use x="111.230469" xlink:href="#ArialMT-31"/>
       <use x="166.845703" xlink:href="#ArialMT-35"/>
      </g>
     </g>
    </g>
    <g id="xtick_18">
     <g id="line2d_35">
      <path clip-path="url(#p94e5aedae9)" d="M 379.2 244.8 
L 379.2 28.8 
" style="fill:none;stroke:#ffffff;stroke-linecap:round;"/>
     </g>
     <g id="line2d_36"/>
     <g id="text_18">
      <!-- 2016 -->
      <g style="fill:#262626;" transform="translate(381.785156 274.04375)rotate(-90)scale(0.1 -0.1)">
       <use xlink:href="#ArialMT-32"/>
       <use x="55.615234" xlink:href="#ArialMT-30"/>
       <use x="111.230469" xlink:href="#ArialMT-31"/>
       <use x="166.845703" xlink:href="#ArialMT-36"/>
      </g>
     </g>
    </g>
    <g id="text_19">
     <!-- start_yr -->
     <defs>
      <path d="M 3.078125 15.484375 
L 11.765625 16.84375 
Q 12.5 11.625 15.84375 8.84375 
Q 19.1875 6.0625 25.203125 6.0625 
Q 31.25 6.0625 34.171875 8.515625 
Q 37.109375 10.984375 37.109375 14.3125 
Q 37.109375 17.28125 34.515625 19 
Q 32.71875 20.171875 25.53125 21.96875 
Q 15.875 24.421875 12.140625 26.203125 
Q 8.40625 27.984375 6.46875 31.125 
Q 4.546875 34.28125 4.546875 38.09375 
Q 4.546875 41.546875 6.125 44.5 
Q 7.71875 47.46875 10.453125 49.421875 
Q 12.5 50.921875 16.03125 51.96875 
Q 19.578125 53.03125 23.640625 53.03125 
Q 29.734375 53.03125 34.34375 51.265625 
Q 38.96875 49.515625 41.15625 46.5 
Q 43.359375 43.5 44.1875 38.484375 
L 35.59375 37.3125 
Q 35.015625 41.3125 32.203125 43.546875 
Q 29.390625 45.796875 24.265625 45.796875 
Q 18.21875 45.796875 15.625 43.796875 
Q 13.03125 41.796875 13.03125 39.109375 
Q 13.03125 37.40625 14.109375 36.03125 
Q 15.1875 34.625 17.484375 33.6875 
Q 18.796875 33.203125 25.25 31.453125 
Q 34.578125 28.953125 38.25 27.359375 
Q 41.9375 25.78125 44.03125 22.75 
Q 46.140625 19.734375 46.140625 15.234375 
Q 46.140625 10.84375 43.578125 6.953125 
Q 41.015625 3.078125 36.171875 0.953125 
Q 31.34375 -1.171875 25.25 -1.171875 
Q 15.140625 -1.171875 9.84375 3.03125 
Q 4.546875 7.234375 3.078125 15.484375 
z
" id="ArialMT-73"/>
      <path d="M 25.78125 7.859375 
L 27.046875 0.09375 
Q 23.34375 -0.6875 20.40625 -0.6875 
Q 15.625 -0.6875 12.984375 0.828125 
Q 10.359375 2.34375 9.28125 4.8125 
Q 8.203125 7.28125 8.203125 15.1875 
L 8.203125 45.015625 
L 1.765625 45.015625 
L 1.765625 51.859375 
L 8.203125 51.859375 
L 8.203125 64.703125 
L 16.9375 69.96875 
L 16.9375 51.859375 
L 25.78125 51.859375 
L 25.78125 45.015625 
L 16.9375 45.015625 
L 16.9375 14.703125 
Q 16.9375 10.9375 17.40625 9.859375 
Q 17.875 8.796875 18.921875 8.15625 
Q 19.96875 7.515625 21.921875 7.515625 
Q 23.390625 7.515625 25.78125 7.859375 
z
" id="ArialMT-74"/>
      <path d="M 40.4375 6.390625 
Q 35.546875 2.25 31.03125 0.53125 
Q 26.515625 -1.171875 21.34375 -1.171875 
Q 12.796875 -1.171875 8.203125 3 
Q 3.609375 7.171875 3.609375 13.671875 
Q 3.609375 17.484375 5.34375 20.625 
Q 7.078125 23.78125 9.890625 25.6875 
Q 12.703125 27.59375 16.21875 28.5625 
Q 18.796875 29.25 24.03125 29.890625 
Q 34.671875 31.15625 39.703125 32.90625 
Q 39.75 34.71875 39.75 35.203125 
Q 39.75 40.578125 37.25 42.78125 
Q 33.890625 45.75 27.25 45.75 
Q 21.046875 45.75 18.09375 43.578125 
Q 15.140625 41.40625 13.71875 35.890625 
L 5.125 37.0625 
Q 6.296875 42.578125 8.984375 45.96875 
Q 11.671875 49.359375 16.75 51.1875 
Q 21.828125 53.03125 28.515625 53.03125 
Q 35.15625 53.03125 39.296875 51.46875 
Q 43.453125 49.90625 45.40625 47.53125 
Q 47.359375 45.171875 48.140625 41.546875 
Q 48.578125 39.3125 48.578125 33.453125 
L 48.578125 21.734375 
Q 48.578125 9.46875 49.140625 6.21875 
Q 49.703125 2.984375 51.375 0 
L 42.1875 0 
Q 40.828125 2.734375 40.4375 6.390625 
z
M 39.703125 26.03125 
Q 34.90625 24.078125 25.34375 22.703125 
Q 19.921875 21.921875 17.671875 20.9375 
Q 15.4375 19.96875 14.203125 18.09375 
Q 12.984375 16.21875 12.984375 13.921875 
Q 12.984375 10.40625 15.640625 8.0625 
Q 18.3125 5.71875 23.4375 5.71875 
Q 28.515625 5.71875 32.46875 7.9375 
Q 36.421875 10.15625 38.28125 14.015625 
Q 39.703125 17 39.703125 22.796875 
z
" id="ArialMT-61"/>
      <path d="M 6.5 0 
L 6.5 51.859375 
L 14.40625 51.859375 
L 14.40625 44 
Q 17.4375 49.515625 20 51.265625 
Q 22.5625 53.03125 25.640625 53.03125 
Q 30.078125 53.03125 34.671875 50.203125 
L 31.640625 42.046875 
Q 28.421875 43.953125 25.203125 43.953125 
Q 22.3125 43.953125 20.015625 42.21875 
Q 17.71875 40.484375 16.75 37.40625 
Q 15.28125 32.71875 15.28125 27.15625 
L 15.28125 0 
z
" id="ArialMT-72"/>
      <path d="M -1.515625 -19.875 
L -1.515625 -13.53125 
L 56.734375 -13.53125 
L 56.734375 -19.875 
z
" id="ArialMT-5f"/>
      <path d="M 6.203125 -19.96875 
L 5.21875 -11.71875 
Q 8.109375 -12.5 10.25 -12.5 
Q 13.1875 -12.5 14.9375 -11.515625 
Q 16.703125 -10.546875 17.828125 -8.796875 
Q 18.65625 -7.46875 20.515625 -2.25 
Q 20.75 -1.515625 21.296875 -0.09375 
L 1.609375 51.859375 
L 11.078125 51.859375 
L 21.875 21.828125 
Q 23.96875 16.109375 25.640625 9.8125 
Q 27.15625 15.875 29.25 21.625 
L 40.328125 51.859375 
L 49.125 51.859375 
L 29.390625 -0.875 
Q 26.21875 -9.421875 24.46875 -12.640625 
Q 22.125 -17 19.09375 -19.015625 
Q 16.0625 -21.046875 11.859375 -21.046875 
Q 9.328125 -21.046875 6.203125 -19.96875 
z
" id="ArialMT-79"/>
     </defs>
     <g style="fill:#262626;" transform="translate(197.664375 285.788437)scale(0.11 -0.11)">
      <use xlink:href="#ArialMT-73"/>
      <use x="50" xlink:href="#ArialMT-74"/>
      <use x="77.783203" xlink:href="#ArialMT-61"/>
      <use x="133.398438" xlink:href="#ArialMT-72"/>
      <use x="166.699219" xlink:href="#ArialMT-74"/>
      <use x="194.482422" xlink:href="#ArialMT-5f"/>
      <use x="250.097656" xlink:href="#ArialMT-79"/>
      <use x="300.097656" xlink:href="#ArialMT-72"/>
     </g>
    </g>
   </g>
   <g id="matplotlib.axis_2">
    <g id="ytick_1">
     <g id="line2d_37">
      <path clip-path="url(#p94e5aedae9)" d="M 43.2 235.770427 
L 388.8 235.770427 
" style="fill:none;stroke:#ffffff;stroke-linecap:round;"/>
     </g>
     <g id="line2d_38"/>
     <g id="text_20">
      <!-- 0 -->
      <g style="fill:#262626;" transform="translate(30.639063 239.349333)scale(0.1 -0.1)">
       <use xlink:href="#ArialMT-30"/>
      </g>
     </g>
    </g>
    <g id="ytick_2">
     <g id="line2d_39">
      <path clip-path="url(#p94e5aedae9)" d="M 43.2 202.91172 
L 388.8 202.91172 
" style="fill:none;stroke:#ffffff;stroke-linecap:round;"/>
     </g>
     <g id="line2d_40"/>
     <g id="text_21">
      <!-- 50 -->
      <g style="fill:#262626;" transform="translate(25.078125 206.490626)scale(0.1 -0.1)">
       <use xlink:href="#ArialMT-35"/>
       <use x="55.615234" xlink:href="#ArialMT-30"/>
      </g>
     </g>
    </g>
    <g id="ytick_3">
     <g id="line2d_41">
      <path clip-path="url(#p94e5aedae9)" d="M 43.2 170.053012 
L 388.8 170.053012 
" style="fill:none;stroke:#ffffff;stroke-linecap:round;"/>
     </g>
     <g id="line2d_42"/>
     <g id="text_22">
      <!-- 100 -->
      <g style="fill:#262626;" transform="translate(19.517188 173.631918)scale(0.1 -0.1)">
       <use xlink:href="#ArialMT-31"/>
       <use x="55.615234" xlink:href="#ArialMT-30"/>
       <use x="111.230469" xlink:href="#ArialMT-30"/>
      </g>
     </g>
    </g>
    <g id="ytick_4">
     <g id="line2d_43">
      <path clip-path="url(#p94e5aedae9)" d="M 43.2 137.194304 
L 388.8 137.194304 
" style="fill:none;stroke:#ffffff;stroke-linecap:round;"/>
     </g>
     <g id="line2d_44"/>
     <g id="text_23">
      <!-- 150 -->
      <g style="fill:#262626;" transform="translate(19.517188 140.773211)scale(0.1 -0.1)">
       <use xlink:href="#ArialMT-31"/>
       <use x="55.615234" xlink:href="#ArialMT-35"/>
       <use x="111.230469" xlink:href="#ArialMT-30"/>
      </g>
     </g>
    </g>
    <g id="ytick_5">
     <g id="line2d_45">
      <path clip-path="url(#p94e5aedae9)" d="M 43.2 104.335597 
L 388.8 104.335597 
" style="fill:none;stroke:#ffffff;stroke-linecap:round;"/>
     </g>
     <g id="line2d_46"/>
     <g id="text_24">
      <!-- 200 -->
      <g style="fill:#262626;" transform="translate(19.517188 107.914503)scale(0.1 -0.1)">
       <use xlink:href="#ArialMT-32"/>
       <use x="55.615234" xlink:href="#ArialMT-30"/>
       <use x="111.230469" xlink:href="#ArialMT-30"/>
      </g>
     </g>
    </g>
    <g id="ytick_6">
     <g id="line2d_47">
      <path clip-path="url(#p94e5aedae9)" d="M 43.2 71.476889 
L 388.8 71.476889 
" style="fill:none;stroke:#ffffff;stroke-linecap:round;"/>
     </g>
     <g id="line2d_48"/>
     <g id="text_25">
      <!-- 250 -->
      <g style="fill:#262626;" transform="translate(19.517188 75.055796)scale(0.1 -0.1)">
       <use xlink:href="#ArialMT-32"/>
       <use x="55.615234" xlink:href="#ArialMT-35"/>
       <use x="111.230469" xlink:href="#ArialMT-30"/>
      </g>
     </g>
    </g>
    <g id="ytick_7">
     <g id="line2d_49">
      <path clip-path="url(#p94e5aedae9)" d="M 43.2 38.618182 
L 388.8 38.618182 
" style="fill:none;stroke:#ffffff;stroke-linecap:round;"/>
     </g>
     <g id="line2d_50"/>
     <g id="text_26">
      <!-- 300 -->
      <g style="fill:#262626;" transform="translate(19.517188 42.197088)scale(0.1 -0.1)">
       <use xlink:href="#ArialMT-33"/>
       <use x="55.615234" xlink:href="#ArialMT-30"/>
       <use x="111.230469" xlink:href="#ArialMT-30"/>
      </g>
     </g>
    </g>
   </g>
   <g id="line2d_51">
    <path clip-path="url(#p94e5aedae9)" d="M 48 215.069441 
L 57.6 215.069441 
L 57.6 184.83943 
L 48 184.83943 
L 48 215.069441 
" style="fill:none;stroke:#4c72b0;stroke-linecap:round;"/>
   </g>
   <g id="line2d_52">
    <path clip-path="url(#p94e5aedae9)" d="M 52.8 215.069441 
L 52.8 230.184447 
" style="fill:none;stroke:#4c72b0;stroke-linecap:round;"/>
   </g>
   <g id="line2d_53">
    <path clip-path="url(#p94e5aedae9)" d="M 52.8 184.83943 
L 52.8 147.051917 
" style="fill:none;stroke:#4c72b0;stroke-linecap:round;"/>
   </g>
   <g id="line2d_54">
    <path clip-path="url(#p94e5aedae9)" d="M 50.4 230.184447 
L 55.2 230.184447 
" style="fill:none;stroke:#1a1a1a;stroke-linecap:round;"/>
   </g>
   <g id="line2d_55">
    <path clip-path="url(#p94e5aedae9)" d="M 50.4 147.051917 
L 55.2 147.051917 
" style="fill:none;stroke:#1a1a1a;stroke-linecap:round;"/>
   </g>
   <g id="line2d_56">
    <defs>
     <path d="M 0 3 
C 0.795609 3 1.55874 2.683901 2.12132 2.12132 
C 2.683901 1.55874 3 0.795609 3 0 
C 3 -0.795609 2.683901 -1.55874 2.12132 -2.12132 
C 1.55874 -2.683901 0.795609 -3 0 -3 
C -0.795609 -3 -1.55874 -2.683901 -2.12132 -2.12132 
C -2.683901 -1.55874 -3 -0.795609 -3 0 
C -3 0.795609 -2.683901 1.55874 -2.12132 2.12132 
C -1.55874 2.683901 -0.795609 3 0 3 
z
" id="mf11bda1b09"/>
    </defs>
    <g clip-path="url(#p94e5aedae9)">
     <use style="fill:none;" x="52.8" xlink:href="#mf11bda1b09" y="130.622563"/>
     <use style="fill:none;" x="52.8" xlink:href="#mf11bda1b09" y="124.050821"/>
    </g>
   </g>
   <g id="line2d_57">
    <path clip-path="url(#p94e5aedae9)" d="M 67.2 216.055203 
L 76.8 216.055203 
L 76.8 182.210734 
L 67.2 182.210734 
L 67.2 216.055203 
" style="fill:none;stroke:#4c72b0;stroke-linecap:round;"/>
   </g>
   <g id="line2d_58">
    <path clip-path="url(#p94e5aedae9)" d="M 72 216.055203 
L 72 231.827382 
" style="fill:none;stroke:#4c72b0;stroke-linecap:round;"/>
   </g>
   <g id="line2d_59">
    <path clip-path="url(#p94e5aedae9)" d="M 72 182.210734 
L 72 143.766046 
" style="fill:none;stroke:#4c72b0;stroke-linecap:round;"/>
   </g>
   <g id="line2d_60">
    <path clip-path="url(#p94e5aedae9)" d="M 69.6 231.827382 
L 74.4 231.827382 
" style="fill:none;stroke:#1a1a1a;stroke-linecap:round;"/>
   </g>
   <g id="line2d_61">
    <path clip-path="url(#p94e5aedae9)" d="M 69.6 143.766046 
L 74.4 143.766046 
" style="fill:none;stroke:#1a1a1a;stroke-linecap:round;"/>
   </g>
   <g id="line2d_62"/>
   <g id="line2d_63">
    <path clip-path="url(#p94e5aedae9)" d="M 86.4 218.026725 
L 96 218.026725 
L 96 178.924863 
L 86.4 178.924863 
L 86.4 218.026725 
" style="fill:none;stroke:#4c72b0;stroke-linecap:round;"/>
   </g>
   <g id="line2d_64">
    <path clip-path="url(#p94e5aedae9)" d="M 91.2 218.026725 
L 91.2 234.653231 
" style="fill:none;stroke:#4c72b0;stroke-linecap:round;"/>
   </g>
   <g id="line2d_65">
    <path clip-path="url(#p94e5aedae9)" d="M 91.2 178.924863 
L 91.2 143.766046 
" style="fill:none;stroke:#4c72b0;stroke-linecap:round;"/>
   </g>
   <g id="line2d_66">
    <path clip-path="url(#p94e5aedae9)" d="M 88.8 234.653231 
L 93.6 234.653231 
" style="fill:none;stroke:#1a1a1a;stroke-linecap:round;"/>
   </g>
   <g id="line2d_67">
    <path clip-path="url(#p94e5aedae9)" d="M 88.8 143.766046 
L 93.6 143.766046 
" style="fill:none;stroke:#1a1a1a;stroke-linecap:round;"/>
   </g>
   <g id="line2d_68"/>
   <g id="line2d_69">
    <path clip-path="url(#p94e5aedae9)" d="M 105.6 219.341073 
L 115.2 219.341073 
L 115.2 189.768237 
L 105.6 189.768237 
L 105.6 219.341073 
" style="fill:none;stroke:#4c72b0;stroke-linecap:round;"/>
   </g>
   <g id="line2d_70">
    <path clip-path="url(#p94e5aedae9)" d="M 110.4 219.341073 
L 110.4 232.484556 
" style="fill:none;stroke:#4c72b0;stroke-linecap:round;"/>
   </g>
   <g id="line2d_71">
    <path clip-path="url(#p94e5aedae9)" d="M 110.4 189.768237 
L 110.4 156.909529 
" style="fill:none;stroke:#4c72b0;stroke-linecap:round;"/>
   </g>
   <g id="line2d_72">
    <path clip-path="url(#p94e5aedae9)" d="M 108 232.484556 
L 112.8 232.484556 
" style="fill:none;stroke:#1a1a1a;stroke-linecap:round;"/>
   </g>
   <g id="line2d_73">
    <path clip-path="url(#p94e5aedae9)" d="M 108 156.909529 
L 112.8 156.909529 
" style="fill:none;stroke:#1a1a1a;stroke-linecap:round;"/>
   </g>
   <g id="line2d_74">
    <g clip-path="url(#p94e5aedae9)">
     <use style="fill:none;" x="110.4" xlink:href="#mf11bda1b09" y="143.766046"/>
     <use style="fill:none;" x="110.4" xlink:href="#mf11bda1b09" y="143.766046"/>
     <use style="fill:none;" x="110.4" xlink:href="#mf11bda1b09" y="142.451698"/>
     <use style="fill:none;" x="110.4" xlink:href="#mf11bda1b09" y="144.42322"/>
    </g>
   </g>
   <g id="line2d_75">
    <path clip-path="url(#p94e5aedae9)" d="M 124.8 219.998248 
L 134.4 219.998248 
L 134.4 184.510843 
L 124.8 184.510843 
L 124.8 219.998248 
" style="fill:none;stroke:#4c72b0;stroke-linecap:round;"/>
   </g>
   <g id="line2d_76">
    <path clip-path="url(#p94e5aedae9)" d="M 129.6 219.998248 
L 129.6 233.141731 
" style="fill:none;stroke:#4c72b0;stroke-linecap:round;"/>
   </g>
   <g id="line2d_77">
    <path clip-path="url(#p94e5aedae9)" d="M 129.6 184.510843 
L 129.6 137.194304 
" style="fill:none;stroke:#4c72b0;stroke-linecap:round;"/>
   </g>
   <g id="line2d_78">
    <path clip-path="url(#p94e5aedae9)" d="M 127.2 233.141731 
L 132 233.141731 
" style="fill:none;stroke:#1a1a1a;stroke-linecap:round;"/>
   </g>
   <g id="line2d_79">
    <path clip-path="url(#p94e5aedae9)" d="M 127.2 137.194304 
L 132 137.194304 
" style="fill:none;stroke:#1a1a1a;stroke-linecap:round;"/>
   </g>
   <g id="line2d_80">
    <g clip-path="url(#p94e5aedae9)">
     <use style="fill:none;" x="129.6" xlink:href="#mf11bda1b09" y="104.335597"/>
    </g>
   </g>
   <g id="line2d_81">
    <path clip-path="url(#p94e5aedae9)" d="M 144 216.548083 
L 153.6 216.548083 
L 153.6 183.196495 
L 144 183.196495 
L 144 216.548083 
" style="fill:none;stroke:#4c72b0;stroke-linecap:round;"/>
   </g>
   <g id="line2d_82">
    <path clip-path="url(#p94e5aedae9)" d="M 148.8 216.548083 
L 148.8 234.981818 
" style="fill:none;stroke:#4c72b0;stroke-linecap:round;"/>
   </g>
   <g id="line2d_83">
    <path clip-path="url(#p94e5aedae9)" d="M 148.8 183.196495 
L 148.8 133.908434 
" style="fill:none;stroke:#4c72b0;stroke-linecap:round;"/>
   </g>
   <g id="line2d_84">
    <path clip-path="url(#p94e5aedae9)" d="M 146.4 234.981818 
L 151.2 234.981818 
" style="fill:none;stroke:#1a1a1a;stroke-linecap:round;"/>
   </g>
   <g id="line2d_85">
    <path clip-path="url(#p94e5aedae9)" d="M 146.4 133.908434 
L 151.2 133.908434 
" style="fill:none;stroke:#1a1a1a;stroke-linecap:round;"/>
   </g>
   <g id="line2d_86">
    <g clip-path="url(#p94e5aedae9)">
     <use style="fill:none;" x="148.8" xlink:href="#mf11bda1b09" y="130.622563"/>
     <use style="fill:none;" x="148.8" xlink:href="#mf11bda1b09" y="127.336692"/>
     <use style="fill:none;" x="148.8" xlink:href="#mf11bda1b09" y="104.335597"/>
     <use style="fill:none;" x="148.8" xlink:href="#mf11bda1b09" y="120.764951"/>
    </g>
   </g>
   <g id="line2d_87">
    <path clip-path="url(#p94e5aedae9)" d="M 163.2 216.055203 
L 172.8 216.055203 
L 172.8 180.403505 
L 163.2 180.403505 
L 163.2 216.055203 
" style="fill:none;stroke:#4c72b0;stroke-linecap:round;"/>
   </g>
   <g id="line2d_88">
    <path clip-path="url(#p94e5aedae9)" d="M 168 216.055203 
L 168 233.141731 
" style="fill:none;stroke:#4c72b0;stroke-linecap:round;"/>
   </g>
   <g id="line2d_89">
    <path clip-path="url(#p94e5aedae9)" d="M 168 180.403505 
L 168 137.194304 
" style="fill:none;stroke:#4c72b0;stroke-linecap:round;"/>
   </g>
   <g id="line2d_90">
    <path clip-path="url(#p94e5aedae9)" d="M 165.6 233.141731 
L 170.4 233.141731 
" style="fill:none;stroke:#1a1a1a;stroke-linecap:round;"/>
   </g>
   <g id="line2d_91">
    <path clip-path="url(#p94e5aedae9)" d="M 165.6 137.194304 
L 170.4 137.194304 
" style="fill:none;stroke:#1a1a1a;stroke-linecap:round;"/>
   </g>
   <g id="line2d_92">
    <g clip-path="url(#p94e5aedae9)">
     <use style="fill:none;" x="168" xlink:href="#mf11bda1b09" y="117.47908"/>
     <use style="fill:none;" x="168" xlink:href="#mf11bda1b09" y="99.735378"/>
    </g>
   </g>
   <g id="line2d_93">
    <path clip-path="url(#p94e5aedae9)" d="M 182.4 220.491128 
L 192 220.491128 
L 192 183.196495 
L 182.4 183.196495 
L 182.4 220.491128 
" style="fill:none;stroke:#4c72b0;stroke-linecap:round;"/>
   </g>
   <g id="line2d_94">
    <path clip-path="url(#p94e5aedae9)" d="M 187.2 220.491128 
L 187.2 232.615991 
" style="fill:none;stroke:#4c72b0;stroke-linecap:round;"/>
   </g>
   <g id="line2d_95">
    <path clip-path="url(#p94e5aedae9)" d="M 187.2 183.196495 
L 187.2 130.622563 
" style="fill:none;stroke:#4c72b0;stroke-linecap:round;"/>
   </g>
   <g id="line2d_96">
    <path clip-path="url(#p94e5aedae9)" d="M 184.8 232.615991 
L 189.6 232.615991 
" style="fill:none;stroke:#1a1a1a;stroke-linecap:round;"/>
   </g>
   <g id="line2d_97">
    <path clip-path="url(#p94e5aedae9)" d="M 184.8 130.622563 
L 189.6 130.622563 
" style="fill:none;stroke:#1a1a1a;stroke-linecap:round;"/>
   </g>
   <g id="line2d_98">
    <g clip-path="url(#p94e5aedae9)">
     <use style="fill:none;" x="187.2" xlink:href="#mf11bda1b09" y="97.763855"/>
     <use style="fill:none;" x="187.2" xlink:href="#mf11bda1b09" y="58.333406"/>
     <use style="fill:none;" x="187.2" xlink:href="#mf11bda1b09" y="87.906243"/>
    </g>
   </g>
   <g id="line2d_99">
    <path clip-path="url(#p94e5aedae9)" d="M 201.6 219.341073 
L 211.2 219.341073 
L 211.2 163.481271 
L 201.6 163.481271 
L 201.6 219.341073 
" style="fill:none;stroke:#4c72b0;stroke-linecap:round;"/>
   </g>
   <g id="line2d_100">
    <path clip-path="url(#p94e5aedae9)" d="M 206.4 219.341073 
L 206.4 230.841621 
" style="fill:none;stroke:#4c72b0;stroke-linecap:round;"/>
   </g>
   <g id="line2d_101">
    <path clip-path="url(#p94e5aedae9)" d="M 206.4 163.481271 
L 206.4 117.47908 
" style="fill:none;stroke:#4c72b0;stroke-linecap:round;"/>
   </g>
   <g id="line2d_102">
    <path clip-path="url(#p94e5aedae9)" d="M 204 230.841621 
L 208.8 230.841621 
" style="fill:none;stroke:#1a1a1a;stroke-linecap:round;"/>
   </g>
   <g id="line2d_103">
    <path clip-path="url(#p94e5aedae9)" d="M 204 117.47908 
L 208.8 117.47908 
" style="fill:none;stroke:#1a1a1a;stroke-linecap:round;"/>
   </g>
   <g id="line2d_104">
    <g clip-path="url(#p94e5aedae9)">
     <use style="fill:none;" x="206.4" xlink:href="#mf11bda1b09" y="38.618182"/>
     <use style="fill:none;" x="206.4" xlink:href="#mf11bda1b09" y="66.219496"/>
    </g>
   </g>
   <g id="line2d_105">
    <path clip-path="url(#p94e5aedae9)" d="M 220.8 216.055203 
L 230.4 216.055203 
L 230.4 179.910624 
L 220.8 179.910624 
L 220.8 216.055203 
" style="fill:none;stroke:#4c72b0;stroke-linecap:round;"/>
   </g>
   <g id="line2d_106">
    <path clip-path="url(#p94e5aedae9)" d="M 225.6 216.055203 
L 225.6 229.85586 
" style="fill:none;stroke:#4c72b0;stroke-linecap:round;"/>
   </g>
   <g id="line2d_107">
    <path clip-path="url(#p94e5aedae9)" d="M 225.6 179.910624 
L 225.6 137.194304 
" style="fill:none;stroke:#4c72b0;stroke-linecap:round;"/>
   </g>
   <g id="line2d_108">
    <path clip-path="url(#p94e5aedae9)" d="M 223.2 229.85586 
L 228 229.85586 
" style="fill:none;stroke:#1a1a1a;stroke-linecap:round;"/>
   </g>
   <g id="line2d_109">
    <path clip-path="url(#p94e5aedae9)" d="M 223.2 137.194304 
L 228 137.194304 
" style="fill:none;stroke:#1a1a1a;stroke-linecap:round;"/>
   </g>
   <g id="line2d_110">
    <g clip-path="url(#p94e5aedae9)">
     <use style="fill:none;" x="225.6" xlink:href="#mf11bda1b09" y="87.906243"/>
     <use style="fill:none;" x="225.6" xlink:href="#mf11bda1b09" y="104.335597"/>
     <use style="fill:none;" x="225.6" xlink:href="#mf11bda1b09" y="117.47908"/>
     <use style="fill:none;" x="225.6" xlink:href="#mf11bda1b09" y="114.193209"/>
     <use style="fill:none;" x="225.6" xlink:href="#mf11bda1b09" y="114.193209"/>
    </g>
   </g>
   <g id="line2d_111">
    <path clip-path="url(#p94e5aedae9)" d="M 240 216.712377 
L 249.6 216.712377 
L 249.6 170.053012 
L 240 170.053012 
L 240 216.712377 
" style="fill:none;stroke:#4c72b0;stroke-linecap:round;"/>
   </g>
   <g id="line2d_112">
    <path clip-path="url(#p94e5aedae9)" d="M 244.8 216.712377 
L 244.8 231.170208 
" style="fill:none;stroke:#4c72b0;stroke-linecap:round;"/>
   </g>
   <g id="line2d_113">
    <path clip-path="url(#p94e5aedae9)" d="M 244.8 170.053012 
L 244.8 104.335597 
" style="fill:none;stroke:#4c72b0;stroke-linecap:round;"/>
   </g>
   <g id="line2d_114">
    <path clip-path="url(#p94e5aedae9)" d="M 242.4 231.170208 
L 247.2 231.170208 
" style="fill:none;stroke:#1a1a1a;stroke-linecap:round;"/>
   </g>
   <g id="line2d_115">
    <path clip-path="url(#p94e5aedae9)" d="M 242.4 104.335597 
L 247.2 104.335597 
" style="fill:none;stroke:#1a1a1a;stroke-linecap:round;"/>
   </g>
   <g id="line2d_116">
    <g clip-path="url(#p94e5aedae9)">
     <use style="fill:none;" x="244.8" xlink:href="#mf11bda1b09" y="71.476889"/>
    </g>
   </g>
   <g id="line2d_117">
    <path clip-path="url(#p94e5aedae9)" d="M 259.2 216.055203 
L 268.8 216.055203 
L 268.8 170.053012 
L 259.2 170.053012 
L 259.2 216.055203 
" style="fill:none;stroke:#4c72b0;stroke-linecap:round;"/>
   </g>
   <g id="line2d_118">
    <path clip-path="url(#p94e5aedae9)" d="M 264 216.055203 
L 264 234.587514 
" style="fill:none;stroke:#4c72b0;stroke-linecap:round;"/>
   </g>
   <g id="line2d_119">
    <path clip-path="url(#p94e5aedae9)" d="M 264 170.053012 
L 264 104.335597 
" style="fill:none;stroke:#4c72b0;stroke-linecap:round;"/>
   </g>
   <g id="line2d_120">
    <path clip-path="url(#p94e5aedae9)" d="M 261.6 234.587514 
L 266.4 234.587514 
" style="fill:none;stroke:#1a1a1a;stroke-linecap:round;"/>
   </g>
   <g id="line2d_121">
    <path clip-path="url(#p94e5aedae9)" d="M 261.6 104.335597 
L 266.4 104.335597 
" style="fill:none;stroke:#1a1a1a;stroke-linecap:round;"/>
   </g>
   <g id="line2d_122">
    <g clip-path="url(#p94e5aedae9)">
     <use style="fill:none;" x="264" xlink:href="#mf11bda1b09" y="64.905148"/>
    </g>
   </g>
   <g id="line2d_123">
    <path clip-path="url(#p94e5aedae9)" d="M 278.4 217.369551 
L 288 217.369551 
L 288 183.196495 
L 278.4 183.196495 
L 278.4 217.369551 
" style="fill:none;stroke:#4c72b0;stroke-linecap:round;"/>
   </g>
   <g id="line2d_124">
    <path clip-path="url(#p94e5aedae9)" d="M 283.2 217.369551 
L 283.2 234.784666 
" style="fill:none;stroke:#4c72b0;stroke-linecap:round;"/>
   </g>
   <g id="line2d_125">
    <path clip-path="url(#p94e5aedae9)" d="M 283.2 183.196495 
L 283.2 137.194304 
" style="fill:none;stroke:#4c72b0;stroke-linecap:round;"/>
   </g>
   <g id="line2d_126">
    <path clip-path="url(#p94e5aedae9)" d="M 280.8 234.784666 
L 285.6 234.784666 
" style="fill:none;stroke:#1a1a1a;stroke-linecap:round;"/>
   </g>
   <g id="line2d_127">
    <path clip-path="url(#p94e5aedae9)" d="M 280.8 137.194304 
L 285.6 137.194304 
" style="fill:none;stroke:#1a1a1a;stroke-linecap:round;"/>
   </g>
   <g id="line2d_128">
    <g clip-path="url(#p94e5aedae9)">
     <use style="fill:none;" x="283.2" xlink:href="#mf11bda1b09" y="128.651041"/>
     <use style="fill:none;" x="283.2" xlink:href="#mf11bda1b09" y="104.335597"/>
     <use style="fill:none;" x="283.2" xlink:href="#mf11bda1b09" y="104.335597"/>
     <use style="fill:none;" x="283.2" xlink:href="#mf11bda1b09" y="107.621468"/>
     <use style="fill:none;" x="283.2" xlink:href="#mf11bda1b09" y="130.622563"/>
     <use style="fill:none;" x="283.2" xlink:href="#mf11bda1b09" y="71.476889"/>
    </g>
   </g>
   <g id="line2d_129">
    <path clip-path="url(#p94e5aedae9)" d="M 297.6 216.055203 
L 307.2 216.055203 
L 307.2 170.053012 
L 297.6 170.053012 
L 297.6 216.055203 
" style="fill:none;stroke:#4c72b0;stroke-linecap:round;"/>
   </g>
   <g id="line2d_130">
    <path clip-path="url(#p94e5aedae9)" d="M 302.4 216.055203 
L 302.4 233.798905 
" style="fill:none;stroke:#4c72b0;stroke-linecap:round;"/>
   </g>
   <g id="line2d_131">
    <path clip-path="url(#p94e5aedae9)" d="M 302.4 170.053012 
L 302.4 104.335597 
" style="fill:none;stroke:#4c72b0;stroke-linecap:round;"/>
   </g>
   <g id="line2d_132">
    <path clip-path="url(#p94e5aedae9)" d="M 300 233.798905 
L 304.8 233.798905 
" style="fill:none;stroke:#1a1a1a;stroke-linecap:round;"/>
   </g>
   <g id="line2d_133">
    <path clip-path="url(#p94e5aedae9)" d="M 300 104.335597 
L 304.8 104.335597 
" style="fill:none;stroke:#1a1a1a;stroke-linecap:round;"/>
   </g>
   <g id="line2d_134">
    <g clip-path="url(#p94e5aedae9)">
     <use style="fill:none;" x="302.4" xlink:href="#mf11bda1b09" y="98.42103"/>
     <use style="fill:none;" x="302.4" xlink:href="#mf11bda1b09" y="87.906243"/>
     <use style="fill:none;" x="302.4" xlink:href="#mf11bda1b09" y="71.476889"/>
     <use style="fill:none;" x="302.4" xlink:href="#mf11bda1b09" y="71.476889"/>
     <use style="fill:none;" x="302.4" xlink:href="#mf11bda1b09" y="84.620372"/>
     <use style="fill:none;" x="302.4" xlink:href="#mf11bda1b09" y="91.192114"/>
    </g>
   </g>
   <g id="line2d_135">
    <path clip-path="url(#p94e5aedae9)" d="M 316.8 217.369551 
L 326.4 217.369551 
L 326.4 163.481271 
L 316.8 163.481271 
L 316.8 217.369551 
" style="fill:none;stroke:#4c72b0;stroke-linecap:round;"/>
   </g>
   <g id="line2d_136">
    <path clip-path="url(#p94e5aedae9)" d="M 321.6 217.369551 
L 321.6 234.127492 
" style="fill:none;stroke:#4c72b0;stroke-linecap:round;"/>
   </g>
   <g id="line2d_137">
    <path clip-path="url(#p94e5aedae9)" d="M 321.6 163.481271 
L 321.6 87.906243 
" style="fill:none;stroke:#4c72b0;stroke-linecap:round;"/>
   </g>
   <g id="line2d_138">
    <path clip-path="url(#p94e5aedae9)" d="M 319.2 234.127492 
L 324 234.127492 
" style="fill:none;stroke:#1a1a1a;stroke-linecap:round;"/>
   </g>
   <g id="line2d_139">
    <path clip-path="url(#p94e5aedae9)" d="M 319.2 87.906243 
L 324 87.906243 
" style="fill:none;stroke:#1a1a1a;stroke-linecap:round;"/>
   </g>
   <g id="line2d_140"/>
   <g id="line2d_141">
    <path clip-path="url(#p94e5aedae9)" d="M 336 222.626944 
L 345.6 222.626944 
L 345.6 182.375027 
L 336 182.375027 
L 336 222.626944 
" style="fill:none;stroke:#4c72b0;stroke-linecap:round;"/>
   </g>
   <g id="line2d_142">
    <path clip-path="url(#p94e5aedae9)" d="M 340.8 222.626944 
L 340.8 234.456079 
" style="fill:none;stroke:#4c72b0;stroke-linecap:round;"/>
   </g>
   <g id="line2d_143">
    <path clip-path="url(#p94e5aedae9)" d="M 340.8 182.375027 
L 340.8 124.050821 
" style="fill:none;stroke:#4c72b0;stroke-linecap:round;"/>
   </g>
   <g id="line2d_144">
    <path clip-path="url(#p94e5aedae9)" d="M 338.4 234.456079 
L 343.2 234.456079 
" style="fill:none;stroke:#1a1a1a;stroke-linecap:round;"/>
   </g>
   <g id="line2d_145">
    <path clip-path="url(#p94e5aedae9)" d="M 338.4 124.050821 
L 343.2 124.050821 
" style="fill:none;stroke:#1a1a1a;stroke-linecap:round;"/>
   </g>
   <g id="line2d_146">
    <g clip-path="url(#p94e5aedae9)">
     <use style="fill:none;" x="340.8" xlink:href="#mf11bda1b09" y="117.47908"/>
     <use style="fill:none;" x="340.8" xlink:href="#mf11bda1b09" y="118.793428"/>
     <use style="fill:none;" x="340.8" xlink:href="#mf11bda1b09" y="104.335597"/>
     <use style="fill:none;" x="340.8" xlink:href="#mf11bda1b09" y="97.763855"/>
    </g>
   </g>
   <g id="line2d_147">
    <path clip-path="url(#p94e5aedae9)" d="M 355.2 217.862432 
L 364.8 217.862432 
L 364.8 170.545893 
L 355.2 170.545893 
L 355.2 217.862432 
" style="fill:none;stroke:#4c72b0;stroke-linecap:round;"/>
   </g>
   <g id="line2d_148">
    <path clip-path="url(#p94e5aedae9)" d="M 360 217.862432 
L 360 233.798905 
" style="fill:none;stroke:#4c72b0;stroke-linecap:round;"/>
   </g>
   <g id="line2d_149">
    <path clip-path="url(#p94e5aedae9)" d="M 360 170.545893 
L 360 110.907338 
" style="fill:none;stroke:#4c72b0;stroke-linecap:round;"/>
   </g>
   <g id="line2d_150">
    <path clip-path="url(#p94e5aedae9)" d="M 357.6 233.798905 
L 362.4 233.798905 
" style="fill:none;stroke:#1a1a1a;stroke-linecap:round;"/>
   </g>
   <g id="line2d_151">
    <path clip-path="url(#p94e5aedae9)" d="M 357.6 110.907338 
L 362.4 110.907338 
" style="fill:none;stroke:#1a1a1a;stroke-linecap:round;"/>
   </g>
   <g id="line2d_152">
    <g clip-path="url(#p94e5aedae9)">
     <use style="fill:none;" x="360" xlink:href="#mf11bda1b09" y="74.76276"/>
     <use style="fill:none;" x="360" xlink:href="#mf11bda1b09" y="71.476889"/>
     <use style="fill:none;" x="360" xlink:href="#mf11bda1b09" y="74.76276"/>
    </g>
   </g>
   <g id="line2d_153">
    <path clip-path="url(#p94e5aedae9)" d="M 374.4 219.012486 
L 384 219.012486 
L 384 157.730997 
L 374.4 157.730997 
L 374.4 219.012486 
" style="fill:none;stroke:#4c72b0;stroke-linecap:round;"/>
   </g>
   <g id="line2d_154">
    <path clip-path="url(#p94e5aedae9)" d="M 379.2 219.012486 
L 379.2 232.550274 
" style="fill:none;stroke:#4c72b0;stroke-linecap:round;"/>
   </g>
   <g id="line2d_155">
    <path clip-path="url(#p94e5aedae9)" d="M 379.2 157.730997 
L 379.2 71.476889 
" style="fill:none;stroke:#4c72b0;stroke-linecap:round;"/>
   </g>
   <g id="line2d_156">
    <path clip-path="url(#p94e5aedae9)" d="M 376.8 232.550274 
L 381.6 232.550274 
" style="fill:none;stroke:#1a1a1a;stroke-linecap:round;"/>
   </g>
   <g id="line2d_157">
    <path clip-path="url(#p94e5aedae9)" d="M 376.8 71.476889 
L 381.6 71.476889 
" style="fill:none;stroke:#1a1a1a;stroke-linecap:round;"/>
   </g>
   <g id="line2d_158"/>
   <g id="line2d_159">
    <path clip-path="url(#p94e5aedae9)" d="M 48 202.254545 
L 57.6 202.254545 
" style="fill:none;stroke:#c44e52;stroke-linecap:round;"/>
   </g>
   <g id="line2d_160">
    <path clip-path="url(#p94e5aedae9)" d="M 67.2 199.625849 
L 76.8 199.625849 
" style="fill:none;stroke:#c44e52;stroke-linecap:round;"/>
   </g>
   <g id="line2d_161">
    <path clip-path="url(#p94e5aedae9)" d="M 86.4 200.940197 
L 96 200.940197 
" style="fill:none;stroke:#c44e52;stroke-linecap:round;"/>
   </g>
   <g id="line2d_162">
    <path clip-path="url(#p94e5aedae9)" d="M 105.6 204.883242 
L 115.2 204.883242 
" style="fill:none;stroke:#c44e52;stroke-linecap:round;"/>
   </g>
   <g id="line2d_163">
    <path clip-path="url(#p94e5aedae9)" d="M 124.8 209.483461 
L 134.4 209.483461 
" style="fill:none;stroke:#c44e52;stroke-linecap:round;"/>
   </g>
   <g id="line2d_164">
    <path clip-path="url(#p94e5aedae9)" d="M 144 205.869003 
L 153.6 205.869003 
" style="fill:none;stroke:#c44e52;stroke-linecap:round;"/>
   </g>
   <g id="line2d_165">
    <path clip-path="url(#p94e5aedae9)" d="M 163.2 206.19759 
L 172.8 206.19759 
" style="fill:none;stroke:#c44e52;stroke-linecap:round;"/>
   </g>
   <g id="line2d_166">
    <path clip-path="url(#p94e5aedae9)" d="M 182.4 204.554655 
L 192 204.554655 
" style="fill:none;stroke:#c44e52;stroke-linecap:round;"/>
   </g>
   <g id="line2d_167">
    <path clip-path="url(#p94e5aedae9)" d="M 201.6 195.682804 
L 211.2 195.682804 
" style="fill:none;stroke:#c44e52;stroke-linecap:round;"/>
   </g>
   <g id="line2d_168">
    <path clip-path="url(#p94e5aedae9)" d="M 220.8 199.625849 
L 230.4 199.625849 
" style="fill:none;stroke:#c44e52;stroke-linecap:round;"/>
   </g>
   <g id="line2d_169">
    <path clip-path="url(#p94e5aedae9)" d="M 240 202.91172 
L 249.6 202.91172 
" style="fill:none;stroke:#c44e52;stroke-linecap:round;"/>
   </g>
   <g id="line2d_170">
    <path clip-path="url(#p94e5aedae9)" d="M 259.2 200.61161 
L 268.8 200.61161 
" style="fill:none;stroke:#c44e52;stroke-linecap:round;"/>
   </g>
   <g id="line2d_171">
    <path clip-path="url(#p94e5aedae9)" d="M 278.4 209.483461 
L 288 209.483461 
" style="fill:none;stroke:#c44e52;stroke-linecap:round;"/>
   </g>
   <g id="line2d_172">
    <path clip-path="url(#p94e5aedae9)" d="M 297.6 196.339978 
L 307.2 196.339978 
" style="fill:none;stroke:#c44e52;stroke-linecap:round;"/>
   </g>
   <g id="line2d_173">
    <path clip-path="url(#p94e5aedae9)" d="M 316.8 199.625849 
L 326.4 199.625849 
" style="fill:none;stroke:#c44e52;stroke-linecap:round;"/>
   </g>
   <g id="line2d_174">
    <path clip-path="url(#p94e5aedae9)" d="M 336 208.826287 
L 345.6 208.826287 
" style="fill:none;stroke:#c44e52;stroke-linecap:round;"/>
   </g>
   <g id="line2d_175">
    <path clip-path="url(#p94e5aedae9)" d="M 355.2 205.540416 
L 364.8 205.540416 
" style="fill:none;stroke:#c44e52;stroke-linecap:round;"/>
   </g>
   <g id="line2d_176">
    <path clip-path="url(#p94e5aedae9)" d="M 374.4 200.283023 
L 384 200.283023 
" style="fill:none;stroke:#c44e52;stroke-linecap:round;"/>
   </g>
   <g id="patch_3">
    <path d="M 43.2 244.8 
L 43.2 28.8 
" style="fill:none;"/>
   </g>
   <g id="patch_4">
    <path d="M 388.8 244.8 
L 388.8 28.8 
" style="fill:none;"/>
   </g>
   <g id="patch_5">
    <path d="M 43.2 244.8 
L 388.8 244.8 
" style="fill:none;"/>
   </g>
   <g id="patch_6">
    <path d="M 43.2 28.8 
L 388.8 28.8 
" style="fill:none;"/>
   </g>
   <g id="text_27">
    <!-- budget -->
    <defs>
     <path d="M 14.703125 0 
L 6.546875 0 
L 6.546875 71.578125 
L 15.328125 71.578125 
L 15.328125 46.046875 
Q 20.90625 53.03125 29.546875 53.03125 
Q 34.328125 53.03125 38.59375 51.09375 
Q 42.875 49.171875 45.625 45.671875 
Q 48.390625 42.1875 49.953125 37.25 
Q 51.515625 32.328125 51.515625 26.703125 
Q 51.515625 13.375 44.921875 6.09375 
Q 38.328125 -1.171875 29.109375 -1.171875 
Q 19.921875 -1.171875 14.703125 6.5 
z
M 14.59375 26.3125 
Q 14.59375 17 17.140625 12.84375 
Q 21.296875 6.0625 28.375 6.0625 
Q 34.125 6.0625 38.328125 11.0625 
Q 42.53125 16.0625 42.53125 25.984375 
Q 42.53125 36.140625 38.5 40.96875 
Q 34.46875 45.796875 28.765625 45.796875 
Q 23 45.796875 18.796875 40.796875 
Q 14.59375 35.796875 14.59375 26.3125 
z
" id="ArialMT-62"/>
     <path d="M 40.578125 0 
L 40.578125 7.625 
Q 34.515625 -1.171875 24.125 -1.171875 
Q 19.53125 -1.171875 15.546875 0.578125 
Q 11.578125 2.34375 9.640625 5 
Q 7.71875 7.671875 6.9375 11.53125 
Q 6.390625 14.109375 6.390625 19.734375 
L 6.390625 51.859375 
L 15.1875 51.859375 
L 15.1875 23.09375 
Q 15.1875 16.21875 15.71875 13.8125 
Q 16.546875 10.359375 19.234375 8.375 
Q 21.921875 6.390625 25.875 6.390625 
Q 29.828125 6.390625 33.296875 8.421875 
Q 36.765625 10.453125 38.203125 13.9375 
Q 39.65625 17.4375 39.65625 24.078125 
L 39.65625 51.859375 
L 48.4375 51.859375 
L 48.4375 0 
z
" id="ArialMT-75"/>
     <path d="M 40.234375 0 
L 40.234375 6.546875 
Q 35.296875 -1.171875 25.734375 -1.171875 
Q 19.53125 -1.171875 14.328125 2.25 
Q 9.125 5.671875 6.265625 11.796875 
Q 3.421875 17.921875 3.421875 25.875 
Q 3.421875 33.640625 6 39.96875 
Q 8.59375 46.296875 13.765625 49.65625 
Q 18.953125 53.03125 25.34375 53.03125 
Q 30.03125 53.03125 33.6875 51.046875 
Q 37.359375 49.078125 39.65625 45.90625 
L 39.65625 71.578125 
L 48.390625 71.578125 
L 48.390625 0 
z
M 12.453125 25.875 
Q 12.453125 15.921875 16.640625 10.984375 
Q 20.84375 6.0625 26.5625 6.0625 
Q 32.328125 6.0625 36.34375 10.765625 
Q 40.375 15.484375 40.375 25.140625 
Q 40.375 35.796875 36.265625 40.765625 
Q 32.171875 45.75 26.171875 45.75 
Q 20.3125 45.75 16.375 40.96875 
Q 12.453125 36.1875 12.453125 25.875 
z
" id="ArialMT-64"/>
     <path d="M 4.984375 -4.296875 
L 13.53125 -5.5625 
Q 14.0625 -9.515625 16.5 -11.328125 
Q 19.78125 -13.765625 25.4375 -13.765625 
Q 31.546875 -13.765625 34.859375 -11.328125 
Q 38.1875 -8.890625 39.359375 -4.5 
Q 40.046875 -1.8125 39.984375 6.78125 
Q 34.234375 0 25.640625 0 
Q 14.9375 0 9.078125 7.71875 
Q 3.21875 15.4375 3.21875 26.21875 
Q 3.21875 33.640625 5.90625 39.90625 
Q 8.59375 46.1875 13.6875 49.609375 
Q 18.796875 53.03125 25.6875 53.03125 
Q 34.859375 53.03125 40.828125 45.609375 
L 40.828125 51.859375 
L 48.921875 51.859375 
L 48.921875 7.03125 
Q 48.921875 -5.078125 46.453125 -10.125 
Q 44 -15.1875 38.640625 -18.109375 
Q 33.296875 -21.046875 25.484375 -21.046875 
Q 16.21875 -21.046875 10.5 -16.875 
Q 4.78125 -12.703125 4.984375 -4.296875 
z
M 12.25 26.859375 
Q 12.25 16.65625 16.296875 11.96875 
Q 20.359375 7.28125 26.46875 7.28125 
Q 32.515625 7.28125 36.609375 11.9375 
Q 40.71875 16.609375 40.71875 26.5625 
Q 40.71875 36.078125 36.5 40.90625 
Q 32.28125 45.75 26.3125 45.75 
Q 20.453125 45.75 16.34375 40.984375 
Q 12.25 36.234375 12.25 26.859375 
z
" id="ArialMT-67"/>
     <path d="M 42.09375 16.703125 
L 51.171875 15.578125 
Q 49.03125 7.625 43.21875 3.21875 
Q 37.40625 -1.171875 28.375 -1.171875 
Q 17 -1.171875 10.328125 5.828125 
Q 3.65625 12.84375 3.65625 25.484375 
Q 3.65625 38.578125 10.390625 45.796875 
Q 17.140625 53.03125 27.875 53.03125 
Q 38.28125 53.03125 44.875 45.953125 
Q 51.46875 38.875 51.46875 26.03125 
Q 51.46875 25.25 51.421875 23.6875 
L 12.75 23.6875 
Q 13.234375 15.140625 17.578125 10.59375 
Q 21.921875 6.0625 28.421875 6.0625 
Q 33.25 6.0625 36.671875 8.59375 
Q 40.09375 11.140625 42.09375 16.703125 
z
M 13.234375 30.90625 
L 42.1875 30.90625 
Q 41.609375 37.453125 38.875 40.71875 
Q 34.671875 45.796875 27.984375 45.796875 
Q 21.921875 45.796875 17.796875 41.75 
Q 13.671875 37.703125 13.234375 30.90625 
z
" id="ArialMT-65"/>
    </defs>
    <g style="fill:#262626;" transform="translate(197.650313 22.8)scale(0.12 -0.12)">
     <use xlink:href="#ArialMT-62"/>
     <use x="55.615234" xlink:href="#ArialMT-75"/>
     <use x="111.230469" xlink:href="#ArialMT-64"/>
     <use x="166.845703" xlink:href="#ArialMT-67"/>
     <use x="222.460938" xlink:href="#ArialMT-65"/>
     <use x="278.076172" xlink:href="#ArialMT-74"/>
    </g>
   </g>
  </g>
  <g id="text_28">
   <!-- Boxplot grouped by start_yr -->
   <defs>
    <path d="M 7.328125 0 
L 7.328125 71.578125 
L 34.1875 71.578125 
Q 42.390625 71.578125 47.34375 69.40625 
Q 52.296875 67.234375 55.09375 62.71875 
Q 57.90625 58.203125 57.90625 53.265625 
Q 57.90625 48.6875 55.421875 44.625 
Q 52.9375 40.578125 47.90625 38.09375 
Q 54.390625 36.1875 57.875 31.59375 
Q 61.375 27 61.375 20.75 
Q 61.375 15.71875 59.25 11.390625 
Q 57.125 7.078125 54 4.734375 
Q 50.875 2.390625 46.15625 1.1875 
Q 41.453125 0 34.625 0 
z
M 16.796875 41.5 
L 32.28125 41.5 
Q 38.578125 41.5 41.3125 42.328125 
Q 44.921875 43.40625 46.75 45.890625 
Q 48.578125 48.390625 48.578125 52.15625 
Q 48.578125 55.71875 46.875 58.421875 
Q 45.171875 61.140625 41.984375 62.140625 
Q 38.8125 63.140625 31.109375 63.140625 
L 16.796875 63.140625 
z
M 16.796875 8.453125 
L 34.625 8.453125 
Q 39.203125 8.453125 41.0625 8.796875 
Q 44.34375 9.375 46.53125 10.734375 
Q 48.734375 12.109375 50.140625 14.71875 
Q 51.5625 17.328125 51.5625 20.75 
Q 51.5625 24.75 49.515625 27.703125 
Q 47.46875 30.671875 43.828125 31.859375 
Q 40.1875 33.0625 33.34375 33.0625 
L 16.796875 33.0625 
z
" id="ArialMT-42"/>
    <path d="M 3.328125 25.921875 
Q 3.328125 40.328125 11.328125 47.265625 
Q 18.015625 53.03125 27.640625 53.03125 
Q 38.328125 53.03125 45.109375 46.015625 
Q 51.90625 39.015625 51.90625 26.65625 
Q 51.90625 16.65625 48.90625 10.90625 
Q 45.90625 5.171875 40.15625 2 
Q 34.421875 -1.171875 27.640625 -1.171875 
Q 16.75 -1.171875 10.03125 5.8125 
Q 3.328125 12.796875 3.328125 25.921875 
z
M 12.359375 25.921875 
Q 12.359375 15.96875 16.703125 11.015625 
Q 21.046875 6.0625 27.640625 6.0625 
Q 34.1875 6.0625 38.53125 11.03125 
Q 42.875 16.015625 42.875 26.21875 
Q 42.875 35.84375 38.5 40.796875 
Q 34.125 45.75 27.640625 45.75 
Q 21.046875 45.75 16.703125 40.8125 
Q 12.359375 35.890625 12.359375 25.921875 
z
" id="ArialMT-6f"/>
    <path d="M 0.734375 0 
L 19.671875 26.953125 
L 2.15625 51.859375 
L 13.140625 51.859375 
L 21.09375 39.703125 
Q 23.34375 36.234375 24.703125 33.890625 
Q 26.859375 37.109375 28.65625 39.59375 
L 37.40625 51.859375 
L 47.90625 51.859375 
L 29.984375 27.4375 
L 49.265625 0 
L 38.484375 0 
L 27.828125 16.109375 
L 25 20.453125 
L 11.375 0 
z
" id="ArialMT-78"/>
    <path d="M 6.59375 -19.875 
L 6.59375 51.859375 
L 14.59375 51.859375 
L 14.59375 45.125 
Q 17.4375 49.078125 21 51.046875 
Q 24.5625 53.03125 29.640625 53.03125 
Q 36.28125 53.03125 41.359375 49.609375 
Q 46.4375 46.1875 49.015625 39.953125 
Q 51.609375 33.734375 51.609375 26.3125 
Q 51.609375 18.359375 48.75 11.984375 
Q 45.90625 5.609375 40.453125 2.21875 
Q 35.015625 -1.171875 29 -1.171875 
Q 24.609375 -1.171875 21.109375 0.6875 
Q 17.625 2.546875 15.375 5.375 
L 15.375 -19.875 
z
M 14.546875 25.640625 
Q 14.546875 15.625 18.59375 10.84375 
Q 22.65625 6.0625 28.421875 6.0625 
Q 34.28125 6.0625 38.453125 11.015625 
Q 42.625 15.96875 42.625 26.375 
Q 42.625 36.28125 38.546875 41.203125 
Q 34.46875 46.140625 28.8125 46.140625 
Q 23.1875 46.140625 18.859375 40.890625 
Q 14.546875 35.640625 14.546875 25.640625 
z
" id="ArialMT-70"/>
    <path d="M 6.390625 0 
L 6.390625 71.578125 
L 15.1875 71.578125 
L 15.1875 0 
z
" id="ArialMT-6c"/>
    <path id="ArialMT-20"/>
   </defs>
   <g style="fill:#262626;" transform="translate(142.63125 14.349375)scale(0.12 -0.12)">
    <use xlink:href="#ArialMT-42"/>
    <use x="66.699219" xlink:href="#ArialMT-6f"/>
    <use x="122.314453" xlink:href="#ArialMT-78"/>
    <use x="172.314453" xlink:href="#ArialMT-70"/>
    <use x="227.929688" xlink:href="#ArialMT-6c"/>
    <use x="250.146484" xlink:href="#ArialMT-6f"/>
    <use x="305.761719" xlink:href="#ArialMT-74"/>
    <use x="333.544922" xlink:href="#ArialMT-20"/>
    <use x="361.328125" xlink:href="#ArialMT-67"/>
    <use x="416.943359" xlink:href="#ArialMT-72"/>
    <use x="450.244141" xlink:href="#ArialMT-6f"/>
    <use x="505.859375" xlink:href="#ArialMT-75"/>
    <use x="561.474609" xlink:href="#ArialMT-70"/>
    <use x="617.089844" xlink:href="#ArialMT-65"/>
    <use x="672.705078" xlink:href="#ArialMT-64"/>
    <use x="728.320312" xlink:href="#ArialMT-20"/>
    <use x="756.103516" xlink:href="#ArialMT-62"/>
    <use x="811.71875" xlink:href="#ArialMT-79"/>
    <use x="861.71875" xlink:href="#ArialMT-20"/>
    <use x="889.501953" xlink:href="#ArialMT-73"/>
    <use x="939.501953" xlink:href="#ArialMT-74"/>
    <use x="967.285156" xlink:href="#ArialMT-61"/>
    <use x="1022.900391" xlink:href="#ArialMT-72"/>
    <use x="1056.201172" xlink:href="#ArialMT-74"/>
    <use x="1083.984375" xlink:href="#ArialMT-5f"/>
    <use x="1139.599609" xlink:href="#ArialMT-79"/>
    <use x="1189.599609" xlink:href="#ArialMT-72"/>
   </g>
  </g>
 </g>
 <defs>
  <clipPath id="p94e5aedae9">
   <rect height="216" width="345.6" x="43.2" y="28.8"/>
  </clipPath>
 </defs>
</svg>
